<svg width="18" height="18" viewBox="0 0 18 18" fill="none" xmlns="http://www.w3.org/2000/svg">
<g clip-path="url(#clip0_2_13)">
<path d="M17.5758 15.7758L14.264 12.4625C16.742 9.15099 16.0663 4.45756 12.7548 1.9795C9.44324 -0.498561 4.7498 0.177125 2.27174 3.48868C-0.206317 6.80023 0.469369 11.4937 3.78092 13.9717C6.44103 15.9623 10.0946 15.9623 12.7548 13.9717L16.068 17.2849C16.4844 17.7013 17.1594 17.7013 17.5757 17.2849C17.9921 16.8686 17.9921 16.1935 17.5757 15.7772L17.5758 15.7758ZM8.29546 13.3322C5.35231 13.3322 2.96645 10.9464 2.96645 8.00322C2.96645 5.06007 5.35231 2.6742 8.29546 2.6742C11.2386 2.6742 13.6245 5.06007 13.6245 8.00322C13.6214 10.945 11.2373 13.3291 8.29546 13.3322Z" fill="#383838"/>
</g>
<defs>
<clipPath id="clip0_2_13">
<rect width="17.1111" height="17.1111" fill="white" transform="translate(0.777771 0.486115)"/>
</clipPath>
</defs>
</svg>
